<svg id="Layer_1" data-name="Layer 1" xmlns="http://www.w3.org/2000/svg" viewBox="0 0 934.12 198.75"><defs><style>.cls-1{fill:#e6332a;}.cls-2{fill:#1d71b8;}</style></defs><path class="cls-1" d="M302,468.45H268a1.41,1.41,0,0,0-1.32,1.19v18.15H302c2.37,0,15.52.66,15.52,12.24S304.67,511.87,302,511.87H266.65v60.64A1.41,1.41,0,0,0,268,573.7h17.1a1.22,1.22,0,0,0,1.32-1.19V531.34H302c2.5,0,35.52-.4,35.52-31.31S306.25,468.45,302,468.45Z" transform="translate(-62.16 -404.73)"/><path class="cls-1" d="M402.55,511.34H361.24V487.53H391.1V468.45H342.56a1.45,1.45,0,0,0-1.45,1.19V572.51a1.45,1.45,0,0,0,1.45,1.19H391.1V554.1H361.24V530.42h41.31a1.44,1.44,0,0,0,1.44-1.19V512.52A1.33,1.33,0,0,0,402.55,511.34Z" transform="translate(-62.16 -404.73)"/><path class="cls-1" d="M479,572c-6.58-14.61-13.68-29.08-20.26-43.94,10.52-3.82,19.34-12.24,19.34-28.29,0-31-29.6-31.31-35.52-31.31H408.47a1.41,1.41,0,0,0-1.32,1.19v17.89h35.39c3.16,0,15.52.66,15.52,12.23s-11.18,12.11-15.52,12.11H407.15v60.64a1.41,1.41,0,0,0,1.32,1.19H425.7a1.45,1.45,0,0,0,1.45-1.19v-41.3h11.31l19.21,41.7a1.75,1.75,0,0,0,1.31.79H477.8A1.16,1.16,0,0,0,479,572Z" transform="translate(-62.16 -404.73)"/><path class="cls-1" d="M215.66,510.66c-.33.51-.68,1-1,1.53a101.58,101.58,0,0,1-12,14.41l-4.22-5.92,0,0-8-11.22L162.1,470a1.39,1.39,0,0,1-.28-.8c0-.64.56-1.18,1.59-1.18h21.05a2.34,2.34,0,0,1,1.1.3.28.28,0,0,1,.09.1l21.08,29.78,3.78,5.34,0,0Z" transform="translate(-62.16 -404.73)"/><path class="cls-1" d="M257.87,573.27H236.82c-.26,0-1-.13-1.18-.4l-15.73-22c.13-.1.25-.21.37-.32A111,111,0,0,0,234,536.29l24.91,35C259.71,572.21,259.19,573.27,257.87,573.27Z" transform="translate(-62.16 -404.73)"/><path class="cls-2" d="M256.23,479.86l-4.16-1a104.37,104.37,0,0,1-18.63,50q-1.53,2.18-3.17,4.27a106.57,106.57,0,0,1-14,14.76c-1.27,1.1-2.57,2.19-3.91,3.23h0c-1.15.94-2.84,2.28-5,3.78a90.36,90.36,0,0,1-13.14,7.62c-20.95,10-42.24,11-46,11.14H99.71a1.45,1.45,0,0,1-1.45-1.19V469.64a1.45,1.45,0,0,1,1.45-1.19h48.54v19.08H118.39v23.81H159.7a1.34,1.34,0,0,1,1.44,1.18v16.71a1.44,1.44,0,0,1-1.44,1.19H118.39V554.1h29.86a76,76,0,0,0,52.91-18.66h0c1.28-1.13,2.53-2.3,3.74-3.49a106.85,106.85,0,0,0,13.24-15.72c1-1.5,2-3,3-4.57a104.45,104.45,0,0,0,14-36.66l-5.25-1.21,18.47-19.86Z" transform="translate(-62.16 -404.73)"/><rect class="cls-1" y="195.5" width="0.34" height="0.88"/><path class="cls-1" d="M544.63,468.45H484.24a1.44,1.44,0,0,0-1.44,1.19v15.65a1.33,1.33,0,0,0,1.44,1.19H504.8v84.69c0,1.34.53,2.1,1.19,2.1h15.65c.53,0,1.19-.76,1.19-2.1V486.48h21.8c.92,0,1.44-.53,1.44-1.19V469.64A1.34,1.34,0,0,0,544.63,468.45Z" transform="translate(-62.16 -404.73)"/><path class="cls-1" d="M156.48,460.54h-7.42l-7.92-32.78L127.05,461.7l-14-33.94-8,32.78H97.69l13.52-55.81L127.05,443l15.84-38.22Z" transform="translate(-62.16 -404.73)"/><path class="cls-1" d="M179,461.55a18.17,18.17,0,1,1,18.16-18.16A18.21,18.21,0,0,1,179,461.55Zm0-29.79a11.63,11.63,0,1,0,11.63,11.63A11.66,11.66,0,0,0,179,431.76Z" transform="translate(-62.16 -404.73)"/><path class="cls-1" d="M234.37,440.92v19.62h-6.54V440.92c0-3.35-.87-5.89-2.55-7.49a8.43,8.43,0,0,0-5.74-2c-4.57,0-9.66,2.9-9.66,6.76v22.38h-6.54V425.29h6.54v2.33a18.9,18.9,0,0,1,9.66-2.76C226.37,424.86,234.37,429.07,234.37,440.92Z" transform="translate(-62.16 -404.73)"/><path class="cls-1" d="M612.82,519.63c-.37-.33-.73-.63-1.1-.92a27.46,27.46,0,0,0,7.93-19.58c0-14.56-11.42-30-32.58-30H559.45V573.55H586.8c11,0,20.42-3.37,27.16-9.75a30,30,0,0,0,9.45-21.63A29.58,29.58,0,0,0,612.82,519.63Zm-8.05,22.54a11.33,11.33,0,0,1-4.07,8.57c-3.23,2.82-8,4.31-13.9,4.31H578V528.77h6.57c6.82,0,12.43,1.67,16.23,4.85A11.34,11.34,0,0,1,604.77,542.17Zm-6.83-36-.08.07c-2.83,2.6-7.45,4-13.34,4H578V487.74h9.12c9.58,0,13.95,5.9,13.95,11.39A9.1,9.1,0,0,1,597.94,506.21Z" transform="translate(-62.16 -404.73)"/><path class="cls-1" d="M681.3,539.78c0,9.73-5.31,15.09-14.95,15.09-9.41,0-14.8-5.5-14.8-15.09V497.24H632.87v42.54c0,9.8,3.21,18.23,9.29,24.37s14.46,9.4,24.19,9.4,18.21-3.25,24.31-9.4S700,549.59,700,539.78V497.24H681.3Z" transform="translate(-62.16 -404.73)"/><path class="cls-1" d="M766.08,502.16a38.8,38.8,0,1,0-20.12,72,38.28,38.28,0,0,0,20.12-5.7v3.83h18.68V469.18H766.08Zm0,33.18A20.12,20.12,0,1,1,746,515.22,20.15,20.15,0,0,1,766.08,535.34Z" transform="translate(-62.16 -404.73)"/><path class="cls-1" d="M851.27,501.66a38.78,38.78,0,1,0-20.12,71.93,38.62,38.62,0,0,0,18.32-4.65c-3.57,11.35-11.84,14.58-16.93,15.47-9.62,1.62-19.88-3-22.39-10.06l-1-2.7-17.65,6.23,1,2.73c5,13.68,19.35,22.87,35.76,22.87a57.32,57.32,0,0,0,7.25-.6l.15,0a40,40,0,0,0,23.39-13.32c7.22-8.44,10.88-19.61,10.88-33.2V497.43H851.27Zm-20.12,53.25a20.12,20.12,0,1,1,20.12-20.12A20.15,20.15,0,0,1,831.15,554.91Z" transform="translate(-62.16 -404.73)"/><path class="cls-1" d="M951.42,525.75a34.75,34.75,0,0,0-2.53-7.41l0,0a38.71,38.71,0,1,0-1.09,35.24l1.4-2.51-16.39-9.13-1.39,2.54a20.07,20.07,0,0,1-33,3.24L951.73,528ZM925,518.08l-30.6,11.15A20.12,20.12,0,0,1,925,518.08Z" transform="translate(-62.16 -404.73)"/><path class="cls-1" d="M981.33,497.42V546.2c0,2.75,0,8.48,12.07,8.48h2.88v18.68H993.4c-9.09,0-16.76-2.51-22.17-7.25s-8.43-11.72-8.43-19.91V497.42H952.3V478.88h10.5v-9.76h18.53v9.76h11.43v18.54Z" transform="translate(-62.16 -404.73)"/></svg>